<?xml version="1.0" encoding="UTF-8" standalone="no"?>
<!-- Created with Inkscape (http://www.inkscape.org/) -->

<svg
   version="1.1"
   id="svg1"
   width="1440"
   height="1440"
   viewBox="0 0 1440 1440"
   sodipodi:docname="webSiteLogo.svg"
   inkscape:version="1.4 (86a8ad7, 2024-10-11)"
   xmlns:inkscape="http://www.inkscape.org/namespaces/inkscape"
   xmlns:sodipodi="http://sodipodi.sourceforge.net/DTD/sodipodi-0.dtd"
   xmlns="http://www.w3.org/2000/svg"
   xmlns:svg="http://www.w3.org/2000/svg">
  <defs
     id="defs1" />
  <sodipodi:namedview
     id="namedview1"
     pagecolor="#ffffff"
     bordercolor="#000000"
     borderopacity="0.25"
     inkscape:showpageshadow="2"
     inkscape:pageopacity="0.0"
     inkscape:pagecheckerboard="0"
     inkscape:deskcolor="#d1d1d1"
     inkscape:zoom="0.39627443"
     inkscape:cx="772.19215"
     inkscape:cy="616.99667"
     inkscape:window-width="1920"
     inkscape:window-height="1009"
     inkscape:window-x="-8"
     inkscape:window-y="-8"
     inkscape:window-maximized="1"
     inkscape:current-layer="g1" />
  <g
     inkscape:groupmode="layer"
     inkscape:label="Image"
     id="g1">
    <circle
       style="display:inline;fill:#ffffff;stroke-width:1.09709"
       id="path2"
       cx="736.95172"
       cy="719.10785"
       r="604.90704"
       sodipodi:insensitive="true" />
    <path
       style="display:inline;fill:#060c0d;stroke:none;stroke-width:1.24268"
       d="m 700.74104,85.990608 c -43.65975,5.732555 -86.18319,9.06105 -129.23924,19.966092 -107.41719,27.20618 -207.71249,85.99586 -286.62178,163.31336 -54.69796,53.59453 -97.99635,118.18512 -130.55737,187.16596 -30.54114,64.70154 -48.4461,134.3996 -55.322431,205.45726 -6.742125,69.67045 -2.838914,140.4867 13.344811,208.77107 C 187.67442,1188.5038 499.49057,1399.698 821.69567,1357.3304 1121.2761,1317.9377 1361.7802,1059.1183 1375.0397,756.33734 1388.6842,444.76947 1170.7479,159.33612 863.11858,97.79865 811.57698,87.488342 753.31282,79.087891 700.74104,85.990608 M 986.85123,415.72155 c -7.41348,3.30159 -21.67093,11.63146 -29.75932,8.08382 -25.11529,-11.01569 -33.17211,-51.53634 -58.06359,-64.80236 -12.46872,-6.64524 -40.34277,1.44292 -40.00501,18.60953 0.18392,9.34179 13.58255,21.22546 19.13375,28.16753 9.81087,12.26898 23.45953,25.02036 29.16233,39.76592 l -29.75932,9.26775 -21.59998,-24.17997 -54.68323,-71.24728 c 17.24996,-3.99078 25.3422,-10.43024 39.76592,3.31383 7.46369,-29.52711 46.19768,-35.93279 71.24735,-27.00797 29.30575,10.44117 58.5122,54.34441 74.5611,80.0292 M 855.955,465.42895 c -15.99062,5.21203 -24.72148,11.72481 -39.76592,1.65691 -10.95315,34.30278 -64.9109,39.6395 -91.10596,21.17418 -19.7654,-13.93297 -24.19507,-39.51532 -3.33164,-54.66276 6.00416,-4.35921 12.9924,-7.53772 19.8765,-10.22909 10.45247,-4.08636 21.95663,-6.7567 33.13831,-7.64664 -14.93857,-18.69751 -36.61981,-15.0624 -56.33501,-6.10987 -14.8317,6.73485 -26.83653,22.54632 -38.04766,2.79736 -5.8948,-10.38383 7.05124,-16.00888 14.85083,-19.93414 20.81373,-10.47503 43.00175,-15.82532 66.27649,-14.79713 34.60194,1.52848 50.77884,30.2596 70.25259,54.61291 8.26435,10.33508 19.38203,20.72072 24.19147,33.13827 m -193.85886,-61.3058 c 8.54806,46.04266 11.7609,95.75157 14.95323,142.49455 0.88989,13.031 9.64485,37.03369 3.92999,49.05531 -4.27185,8.9862 -28.14308,14.18793 -37.10918,17.22121 l -9.96323,-72.55649 -39.74417,-24.9521 -97.75792,-56.58434 v -1.65691 l 41.42279,-12.57774 28.16756,14.56575 66.27649,41.09174 -7.58273,-57.99197 -0.6544,-24.00866 38.06157,-14.10035 m 119.29776,30.60052 c -10.4101,1.64467 -25.73625,5.13507 -32.13844,14.30999 -10.67193,15.29367 11.79792,24.94066 23.85396,23.3592 10.14714,-1.33108 22.52876,-7.08638 26.95421,-16.92966 5.13564,-11.42293 -7.94822,-22.43346 -18.66973,-20.73953 m -311.49961,93.66798 111.01314,36.4521 c -5.21977,7.62621 -18.11548,9.74447 -26.51057,12.93694 -46.25099,17.58812 -85.1945,-23.10648 -130.89623,-28.47566 -9.84579,-1.15673 -22.19,5.88768 -31.48134,8.91106 13.38934,19.84715 34.13074,41.73502 41.42282,64.61961 -11.07916,4.27386 -34.49892,18.42296 -46.23884,15.26375 -11.67439,-3.1416 -23.52592,-30.43759 -29.97922,-40.11745 l -54.12586,-81.18874 c -9.10766,-13.66155 -21.23193,-27.69626 -27.06288,-43.07975 19.34141,-8.3239 41.08757,-13.01523 61.30578,-18.9292 35.38163,-10.34934 73.64322,-23.22824 111.01324,-16.5027 27.15615,4.88731 63.12777,30.37339 47.3422,61.94252 -6.05586,12.11091 -17.89405,17.85783 -25.80224,28.16752 M 338.998,483.65499 c 6.78694,12.19031 15.4378,23.22208 23.19548,34.79518 2.95775,4.4125 6.34884,12.04225 11.90532,13.60684 6.17864,1.73973 15.43947,-3.39069 21.23426,-5.32227 16.78917,-5.59634 56.47009,-15.0438 55.85447,-38.10901 -0.40487,-15.16889 -16.11638,-23.16513 -29.34377,-24.56608 -26.01039,-2.75479 -58.90445,10.42831 -82.84576,19.59534 m 742.2973,102.72863 c 8.5935,-29.63705 41.0062,-44.19248 69.5904,-30.94435 22.7291,10.5344 38.2552,36.92658 53.7243,55.79804 7.3276,8.93959 16.2941,17.43824 20.8368,28.16753 -7.1022,3.0605 -20.0418,14.4182 -27.885,10.24578 -25.437,-13.53189 -34.5901,-53.1176 -59.9314,-68.22237 -14.1878,-8.45659 -40.8334,5.08167 -37.7856,23.18142 1.9791,11.7526 16.9777,24.12546 24.1992,33.13825 9.9653,12.43738 23.5185,25.27603 30.1555,39.76592 -6.567,3.83657 -20.2775,14.87531 -28.1024,12.56237 -11.9576,-3.5346 -24.9261,-27.8966 -32.5412,-37.41607 l -59.3164,-74.5611 c -9.8122,-12.26594 -23.4601,-25.02187 -29.1623,-39.76591 l 27.8862,-10.24578 15.1923,15.21652 33.1396,43.07975 m -33.1383,29.82443 -34.7952,16.56913 c 11.4591,14.21544 22.5939,28.69745 33.8416,43.07975 4.9227,6.29464 10.5599,14.6061 19.1797,15.74189 10.6499,1.40328 22.6204,-9.17067 29.8245,-15.74189 h 1.6569 c 4.6285,5.02859 15.2499,14.03461 14.7178,21.53351 -0.4466,6.29342 -8.3487,10.63815 -13.061,13.56729 -14.8385,9.22406 -33.9142,16.38912 -51.3643,10.92709 -30.6436,-9.59167 -41.4144,-49.00131 -64.06478,-68.62639 -7.40926,-6.41963 -20.44266,4.55347 -28.72242,6.02937 l -14.91222,-23.19679 23.19682,-9.94148 -21.53983,-29.82443 c 6.8636,-3.991 24.50016,-15.70569 32.36983,-11.48079 8.81747,4.7337 12.02522,20.98882 21.75469,23.63398 9.70951,2.63969 22.04761,-11.88429 31.96981,-12.22742 8.2963,-0.28691 15.9671,13.93834 19.9481,19.95718 m -130.89613,0 c -8.07198,4.30339 -25.312,15.82613 -34.64556,13.56467 -9.16505,-2.22072 -18.9538,-20.22822 -21.68957,-28.47688 8.93938,-3.71694 22.92008,-13.82123 32.85075,-12.4217 9.36052,1.31914 19.19376,19.80348 23.48438,27.33391 m 18.22597,23.19679 57.03837,74.5611 25.80729,38.109 c -8.063,3.35792 -22.40333,15.66908 -31.19881,13.55961 -9.2104,-2.20898 -17.90485,-19.66502 -23.26952,-26.81491 -18.85364,-25.12726 -51.60784,-54.63081 -61.51552,-84.50258 l 33.13819,-14.91222 m -6.62762,159.06368 c -14.01897,-19.51607 -28.44829,-38.77131 -42.87002,-57.99197 -7.0623,-9.41237 -14.22427,-21.59812 -25.0647,-27.02708 -16.62663,-8.32673 -49.06158,13.71423 -45.98444,32.95158 1.30544,8.1616 11.12153,17.45705 15.9516,23.89994 13.65773,18.21806 33.43941,38.34798 41.63255,59.64888 l -38.10904,19.88296 c -11.935,-20.94695 -28.35497,-40.02977 -42.38165,-59.64888 -7.21851,-10.09652 -14.41427,-23.14542 -25.55308,-29.36288 -18.15078,-10.1315 -53.4746,13.5239 -51.76193,34.33362 0.71392,8.67321 10.45098,18.02592 15.31112,24.8537 13.39515,18.81836 37.26191,42.19041 43.07979,64.61962 -9.58732,4.47621 -28.93493,21.03746 -39.61121,18.53034 -9.37096,-2.20048 -18.73521,-22.59637 -23.91671,-30.12873 -13.72695,-19.95507 -27.57692,-39.87474 -41.56086,-59.64888 -8.38253,-11.85355 -19.70823,-24.16805 -24.15046,-38.10901 21.91748,-9.12526 30.82045,-18.87257 49.7074,0 11.0159,-47.47879 60.9619,-57.11588 101.07167,-46.39357 3.53643,-40.25054 57.23248,-62.09531 91.13019,-44.74313 19.77845,10.12453 33.22368,34.0905 46.18389,51.37078 6.91927,9.22578 30.34748,31.16867 29.75671,42.9059 -0.43494,8.63701 -25.66679,17.98041 -32.86082,20.05681 M 597.47653,780.24247 c -17.16633,4.44132 -34.4701,7.02297 -51.36427,12.70425 -19.09349,6.42095 -42.26173,14.37845 -55.45159,30.52507 -12.55634,15.37104 -0.41406,33.23606 17.34254,35.80264 50.11699,7.24403 109.28718,-49.57482 155.60031,-5.82095 5.81949,5.49784 10.3169,12.38903 13.76025,19.57614 4.54574,9.48821 5.31484,19.41422 4.46062,29.82444 -1.29401,15.7708 -12.35564,29.07628 -23.04336,39.7647 -24.64542,24.64699 -57.12287,41.51425 -89.47195,53.72428 -11.4327,4.31526 -33.9074,14.93946 -46.08795,9.89556 -9.35071,-3.8721 -17.70553,-21.72908 -21.84553,-30.48037 19.7393,-3.82796 39.3137,-8.74359 57.992,-16.23802 22.7271,-9.119 50.06853,-21.26642 64.72065,-41.75515 10.58954,-14.80806 3.97883,-34.35222 -15.01325,-37.55542 -12.51806,-2.1114 -27.98489,3.34578 -39.76592,7.18498 -41.85263,13.63879 -135.55767,38.90459 -139.11435,-34.24796 -2.57286,-52.92071 58.77079,-78.01489 101.00531,-91.08796 11.49719,-3.55877 34.42771,-13.0927 46.23881,-8.91875 8.69296,3.07201 16.66913,19.09414 20.03768,27.10252 m 583.23367,9.94148 -11.5985,4.97074 c 11.5518,17.46605 14.4539,19.97317 33.1383,14.91222 9.5956,15.27304 -3.343,30.54146 -21.5398,25.78571 -11.4791,-3.00012 -22.1437,-18.78276 -26.5107,-29.09954 l -28.1675,16.56914 c 12.6676,0.48431 25.1003,-8.24968 36.2716,2.03533 19.256,17.72819 -8.1848,43.97091 -27.9871,41.04441 -4.8214,16.39176 -38.6482,36.58417 -54.5284,24.13518 -6.9218,-5.42614 -15.9078,-27.50746 -26.6539,-22.40929 -26.31,12.48226 18.9987,32.74688 10.2789,47.44198 -4.3842,7.38825 -23.1521,18.84608 -31.8252,17.70442 -6.4744,-0.85222 -11.6768,-7.13634 -18.2261,-6.87694 -6.3935,0.25323 -15.03636,6.8378 -19.72054,10.8556 -10.81422,9.27593 3.69513,34.45477 -19.80628,35.47669 -7.3946,0.32149 -7.80891,-15.16514 -8.87277,-20.16814 -3.76633,-17.7109 -7.78443,-35.37466 -11.82713,-53.02123 -1.4445,-6.30546 -4.62404,-15.21774 -0.0783,-20.89294 8.23378,-10.27896 19.68313,-5.38366 28.82345,0.0204 19.77937,11.69457 38.83227,26.05422 59.64887,35.78474 l -31.4812,-44.73662 18.2261,-4.97074 c 3.8717,-8.77707 8.9647,-13.81658 18.2261,-16.56913 l -8.2846,-14.91222 c 4.5943,-2.44179 11.0015,-7.83626 16.504,-6.12777 5.0695,1.57409 7.4299,8.0999 13.3856,7.13391 13.1448,-2.13203 26.8824,-24.02666 36.387,-4.31997 h 1.657 c -4.0299,-22.8041 18.348,-28.99791 34.7951,-38.10901 -5.8308,-6.96007 -9.0322,-22.97986 6.3463,-20.08491 4.6123,0.8683 6.6563,6.34772 11.2009,7.28469 11.0688,2.2821 18.7145,-6.2107 22.2188,11.14331 m -89.4734,24.8537 c -14.6334,7.6962 -23.584,6.21736 -28.1676,-11.59839 13.7765,-5.89689 24.4741,-6.38657 28.1676,11.59839 m 23.1967,24.8537 c 8.0832,16.21255 25.4654,16.14195 34.7952,0 l -1.6569,-1.65691 c -12.0806,3.42831 -20.9629,6.09429 -33.1383,1.65691 m -24.8537,3.31383 c -3.0367,2.37088 -8.0939,5.10645 -9.6589,8.8254 -7.9489,18.88703 36.1442,29.73161 23.7389,7.74251 -1.3229,-2.3451 -3.187,-4.50332 -4.8402,-6.61875 -2.8563,-3.65464 -5.7625,-6.91051 -9.2398,-9.94916 m -112.67006,57.99196 4.97074,16.56914 11.59835,-4.97074 -16.56909,-11.5984 m -117.64088,23.19679 21.53983,28.16753 c 5.63868,-16.44688 27.92139,-24.64447 43.01467,-15.68567 14.14039,8.39318 29.22174,31.9956 34.86029,47.16701 -4.64018,2.84964 -10.91959,8.36244 -16.54486,8.56976 -14.75502,0.54367 -19.63678,-30.23827 -33.18677,-34.65592 -20.42203,-6.6581 -9.90283,21.26348 -5.13825,27.74307 5.78519,7.86752 11.6795,15.05987 13.44709,24.85367 l -21.53995,8.2846 c -7.09449,16.4083 -31.87164,29.0585 -49.7074,25.6272 -6.59468,-1.2688 -14.15804,-8.6444 -20.58607,-8.0007 -10.96173,1.0977 -32.23015,17.2064 -39.06281,25.4533 10.32982,-0.087 18.2456,-2.2726 26.50423,-8.7654 4.11528,-3.2352 10.5934,-12.1303 16.48608,-11.2544 8.9231,1.3264 10.44751,13.5272 5.76209,19.3153 -15.96577,19.7228 -52.33108,36.1641 -73.3004,15.3098 -36.66567,-36.4644 11.61066,-89.51049 52.71557,-62.6558 0,-26.08662 15.39525,-46.84343 43.07978,-48.05053 -10.33578,-18.14392 -27.52099,-33.00102 1.65688,-41.42282 m -1.65688,41.42282 9.94148,16.56915 c -8.83909,1.325 -20.0624,4.8247 -24.55707,13.3269 -6.35807,12.02688 4.88115,26.91878 17.92934,25.50698 10.39779,-1.125 17.05697,-9.7347 24.8537,-15.6371 -5.11837,-13.50014 -17.04442,-30.57887 -28.16745,-39.76593 m -142.49457,76.21803 v 1.6569 c 12.02944,11.024 20.17288,27.9161 29.27729,41.4228 4.08607,6.0621 10.68783,12.6516 12.54055,19.8574 2.21745,8.6248 -14.1681,19.6252 -21.78017,16.3698 -21.82751,-9.3351 -24.09305,-50.0636 -44.72385,-61.0859 -14.1773,-7.5746 -28.29955,29.1833 -41.72203,5.0089 -1.50067,-2.7027 -2.31749,-5.3793 -3.18215,-8.3177 19.99505,-9.3465 39.02068,-22.1723 57.99201,-33.4707 7.73472,-4.6063 17.62686,-12.8482 26.5092,-14.636 7.4248,-1.4945 17.00366,9.0384 12.16614,15.9975 -5.246,7.5465 -19.09,12.946 -27.07699,17.197 m 57.99201,-1.6569 18.22596,-11.5984 c -9.52729,0.2303 -14.24863,2.7744 -18.22596,11.5984 z"
       id="path1"
       sodipodi:nodetypes="cssssssssccsssscccccscccssscsssssccssccccccccccccssscccssccscscsssccsssssccsscsssscsccccccccssccssssccccsssccscsccccsscccssssccsssscssscccsssccssssssssscsssssssccccsccscssssssssssscccccsscccssccccccccccsscccccccscsssccsscsssscccccssccccssssscssscccc" />
  </g>
</svg>
